<?xml version="1.0" encoding="UTF-8"?>
<svg id="Layer_1" data-name="Layer 1" xmlns="http://www.w3.org/2000/svg" viewBox="0 0 512 512">
  <defs>
    <style>
      .cls-1 {
        fill: #5eead4;
        stroke: #0f172a;
        stroke-miterlimit: 10;
        stroke-width: 20px;
      }
    </style>
  </defs>
  <path class="cls-1" d="M254.83,496c-11.93,0-23.85-4.55-32.95-13.65-18.2-18.2-18.2-47.71,0-65.91l160.45-160.44-71.9-71.9c-18.2-18.2-18.2-47.71,0-65.91,18.2-18.2,47.71-18.2,65.91,0l104.85,104.85c18.2,18.2,18.2,47.71,0,65.91l-193.4,193.4c-9.1,9.1-21.03,13.65-32.95,13.65Z"/>
  <path class="cls-1" d="M166.29,402.8c-11.93,0-23.85-4.55-32.95-13.65l-102.52-102.52c-18.2-18.2-18.2-47.71,0-65.91L221.88,29.65c18.2-18.2,47.71-18.2,65.91,0,18.2,18.2,18.2,47.71,0,65.91l-158.12,158.11,69.57,69.57c18.2,18.2,18.2,47.71,0,65.91-9.1,9.1-21.03,13.65-32.95,13.65Z"/>
  <circle class="cls-1" cx="256.76" cy="256" r="49.34"/>
</svg>